# xmcd
#
# Track frame offsets:
#	150
#	11540
#	22355
#	34252
#	44140
#	56157
#	72447
#	83952
#	95502
#	108962
#	121120
#	141250
#	153792
#	172832
#	184640
#
# Disc length: 2718 seconds
# Revision: 0
# Processed by: cddbd v1.5.2PL0 Copyright (c) Steve Scherf et al.
# Submitted via: dBpowerAMP V12.0
#
DISCID=cb0a9c0f
DTITLE=Gert Streng - Mijn laatste levenswerk
DYEAR=1900
DGENRE=Country
TTITLE0=Little joe
TTITLE1=Een blokhut als woning
TTITLE2=M'n liefste schat
TTITLE3=Rosie uit Mexico
TTITLE4=Het jodelfeest
TTITLE5=Zilver draden tussen goud
TTITLE6=De jodelende cowboy
TTITLE7=Bij het kampvuur
TTITLE8=Mijn alles
TTITLE9=Mijn trouwe merrie
TTITLE10=Met jou dans ik de hele nacht
TTITLE11=Een gebroken hart
TTITLE12=De roddels over mij
TTITLE13=Jaren cowboy
TTITLE14=De Gert Streng jodel-medley
EXTD=
EXTT0=
EXTT1=
EXTT2=
EXTT3=
EXTT4=
EXTT5=
EXTT6=
EXTT7=
EXTT8=
EXTT9=
EXTT10=
EXTT11=
EXTT12=
EXTT13=
EXTT14=
PLAYORDER=
